# xmcd
#
# Track frame offsets: 
#        182
#        17607
#        26580
#        39020
#        50540
#        63675
#        79485
#        92965
#        103682
#        115622
#
# Disc length: 1709 seconds
#
# Revision: 2
# Processed by: cddbd v1.4PL0 Copyright (c) Steve Scherf et al.
# Submitted via: ExactAudioCopy v0.90b3
#
DISCID=7a06ab0a
DTITLE=The Statler Brothers - Christmas Wishes
DYEAR=1900
DGENRE=Country
TTITLE0=I'll Be Home For Christmas
TTITLE1=Christmas Country Style
TTITLE2=The Carols Those Kids Used To Sing
TTITLE3=Old Toy Trains
TTITLE4=I Believe In Santa's Cause
TTITLE5=An Old Fashioned Christmas
TTITLE6=Jingle Bells
TTITLE7=White Christmas
TTITLE8=Whose Birthday Is Christmas
TTITLE9=Away In A Manager
EXTD=
EXTT0=
EXTT1=
EXTT2=
EXTT3=
EXTT4=
EXTT5=
EXTT6=
EXTT7=
EXTT8=
EXTT9=
PLAYORDER=
